<svg version="1.1" id="Layer_1" xmlns="http://www.w3.org/2000/svg" xmlns:xlink="http://www.w3.org/1999/xlink" x="0px" y="0px"
	 width="100%" viewBox="0 0 182 190" enable-background="new 0 0 182 190" xml:space="preserve">
<path fill="#FCFDFD" opacity="1.000000" stroke="none" 
	d="
M183.000000,75.000000 
	C183.000000,114.000000 183.000000,152.500000 183.000000,191.000000 
	C122.333336,191.000000 61.666668,191.000000 1.000000,191.000000 
	C1.000000,127.666664 1.000000,64.333336 1.000000,1.000000 
	C61.666668,1.000000 122.333336,1.000000 183.000000,1.000000 
	C183.000000,25.500000 183.000000,50.000000 183.000000,75.000000 
M100.074028,7.913466 
	C100.074028,7.913466 100.168671,7.897193 100.009918,7.374830 
	C99.675911,7.292208 99.341904,7.209586 98.405846,6.790184 
	C97.327332,6.511778 96.248810,6.233373 94.905479,5.381240 
	C94.290131,4.923132 93.662079,4.051394 93.061363,4.069841 
	C85.718903,4.295309 79.171753,6.228789 74.835236,13.654860 
	C65.695709,22.798784 56.566711,31.953257 47.414078,41.084038 
	C35.134605,53.334183 22.752378,65.483002 10.596025,77.853920 
	C6.710965,81.807549 6.249963,86.956184 6.624580,92.404678 
	C7.167186,100.296432 13.981062,103.694603 17.765394,109.896469 
	C16.769447,112.187241 15.773499,114.478012 14.107860,117.025299 
	C10.301215,117.838783 8.558503,120.146957 8.692922,124.483322 
	C8.567410,124.613167 8.441899,124.743019 8.014811,125.073936 
	C7.841232,125.272072 7.783428,125.499619 7.686782,126.291405 
	C7.587999,126.448509 7.489215,126.605614 7.021151,126.872002 
	C7.013082,127.258636 7.005013,127.645271 6.978361,128.903320 
	C6.923371,130.936295 6.868381,132.969284 6.467661,135.338562 
	C6.613652,135.895813 6.759642,136.453064 6.998088,137.768997 
	C7.951741,143.589630 11.492735,147.635895 16.276052,151.592560 
	C17.442667,152.190536 18.609280,152.788513 20.704401,154.452606 
	C21.069044,154.751129 21.433685,155.049652 21.268078,155.602875 
	C22.888418,157.878189 24.231678,160.434250 26.190065,162.367035 
	C29.659824,165.791458 33.503311,168.837189 37.660748,172.471603 
	C37.988480,172.726044 38.316212,172.980499 38.583530,173.667389 
	C39.050758,173.956406 39.517986,174.245438 40.011951,174.862915 
	C40.011951,174.862915 40.338753,174.905289 40.586792,175.488708 
	C41.719265,176.645538 42.851738,177.802368 44.012905,179.645905 
	C45.653805,180.824020 47.294704,182.002121 49.159035,183.763458 
	C49.745544,183.872726 50.332058,183.981995 51.256489,184.775116 
	C57.958950,187.429245 64.361137,183.866470 65.847206,176.640930 
	C65.896172,163.010071 65.966774,149.379166 65.951904,135.748383 
	C65.950752,134.688873 65.350571,133.630035 64.971848,131.906479 
	C64.025963,130.472748 63.080074,129.039001 61.907169,126.990768 
	C58.438038,123.323311 54.968906,119.655846 51.142799,115.396126 
	C50.429688,114.824440 49.716572,114.252762 48.986172,113.290283 
	C48.839764,113.019394 48.617260,112.921539 48.024048,112.429214 
	C48.142529,111.322670 48.261009,110.216133 48.919140,108.882881 
	C49.622627,107.976303 50.326115,107.069717 51.761864,106.068031 
	C56.862782,101.414383 61.963696,96.760742 67.678329,91.832542 
	C70.568893,88.543938 73.459450,85.255325 76.741608,81.861427 
	C76.979019,81.669960 77.062080,81.425949 77.378777,80.919228 
	C77.696526,80.782433 77.826340,80.543648 78.079727,79.560173 
	C81.675117,76.227875 85.169098,72.772545 88.945663,69.660080 
	C89.767609,68.982666 92.197647,68.930168 92.880569,69.606354 
	C106.314034,82.907249 119.598701,96.358429 133.192947,110.241379 
	C133.371994,110.260406 133.551041,110.279434 133.726791,110.164009 
	C133.726791,110.164009 133.643936,110.269951 133.574371,110.932526 
	C132.314117,112.944984 131.053848,114.957436 129.187866,117.270424 
	C127.755890,119.194046 126.323906,121.117661 124.294197,123.321022 
	C120.855766,126.432945 117.377785,129.518753 116.277229,135.257980 
	C116.236938,148.788406 116.190002,162.318817 116.188194,175.849243 
	C116.188141,176.258072 116.659660,176.666962 116.919411,177.808319 
	C119.752029,180.527069 122.444077,185.330826 125.446350,185.533234 
	C131.819290,185.962921 137.100861,182.141693 140.732544,175.824707 
	C142.069183,174.510895 143.405838,173.197083 145.086975,171.879135 
	C145.086975,171.879135 145.169724,171.544693 145.484100,171.384338 
	C145.702179,171.339523 145.920242,171.294708 146.138321,171.249893 
	C146.031952,171.220535 145.925598,171.191193 146.469971,170.887772 
	C146.580261,170.679840 146.690552,170.471924 147.443527,170.402496 
	C150.248611,167.198990 153.053696,163.995483 156.026047,160.445511 
	C156.026047,160.445511 156.115387,160.071304 156.586334,159.900650 
	C156.752274,159.618408 156.918228,159.336182 157.008774,159.013229 
	C157.008774,159.013229 157.050522,159.088074 157.586456,158.830429 
	C158.101181,158.239716 158.615906,157.648987 159.034897,157.033005 
	C159.034897,157.033005 159.023590,157.131378 159.528595,156.929840 
	C159.713654,156.628189 159.898727,156.326523 160.011612,156.014969 
	C160.011612,156.014969 160.042374,156.081009 160.699142,155.851196 
	C164.930283,151.933853 169.161438,148.016495 174.067902,143.919250 
	C179.837463,133.574982 177.994461,124.113213 169.126038,118.868263 
	C169.126038,118.868263 169.116989,118.796936 169.088333,118.202049 
	C168.513962,117.741058 167.939590,117.280067 167.246292,116.783066 
	C167.246292,116.783066 167.187607,116.673538 167.136093,115.913025 
	C166.059952,113.001656 164.837357,110.127022 168.290741,107.756660 
	C168.659531,107.503532 168.117233,105.923058 168.170685,104.400047 
	C168.518219,103.935699 168.865753,103.471359 169.849625,102.757286 
	C170.913071,101.326637 171.895035,99.825912 173.054382,98.477730 
	C177.560135,93.238159 177.023895,83.267273 171.225449,78.190750 
	C169.505234,76.760300 167.785019,75.329849 166.032990,73.988838 
	C166.032990,73.988838 166.109573,73.932747 166.021790,73.231247 
	C163.375931,70.775703 160.730057,68.320168 158.051956,65.960289 
	C158.051956,65.960289 158.139740,65.910446 158.084686,65.184464 
	C155.412491,62.751228 152.740280,60.317997 150.038620,57.974953 
	C150.038620,57.974953 150.119919,57.926029 150.054352,57.218079 
	C145.510910,52.348324 141.078568,47.367989 136.382538,42.650112 
	C133.544891,39.799255 130.298050,37.355701 127.135002,34.798473 
	C127.135002,34.798473 127.255653,34.814697 127.137062,34.239582 
	C126.775352,34.115822 126.413635,33.992065 126.057640,33.951782 
	C126.057640,33.951782 126.133514,33.916512 126.070625,33.239758 
	C124.996452,32.011940 123.922272,30.784124 122.703827,29.305189 
	C122.703827,29.305189 122.459160,29.150236 122.248543,28.728146 
	C121.775505,28.331005 121.302460,27.933865 120.687019,27.309633 
	C120.687019,27.309633 120.466400,27.157410 120.214813,26.661169 
	C119.485085,26.065039 118.755348,25.468908 117.882690,24.425737 
	C117.702560,24.129234 117.439064,23.984394 116.964806,23.389894 
	C116.251457,22.759054 115.538109,22.128216 114.691162,21.293076 
	C114.691162,21.293076 114.509949,21.129513 114.331039,20.550919 
	C113.255867,19.962751 112.180687,19.374584 111.074951,18.894793 
	C111.074951,18.894793 111.187347,18.887909 111.052620,18.337231 
	C110.714836,18.190325 110.377060,18.043417 110.033646,17.976950 
	C110.033646,17.976950 110.104515,17.938494 110.017784,17.238749 
	C107.063332,14.426232 104.108871,11.613716 101.092163,8.876637 
	C101.092163,8.876637 101.189186,8.888953 101.099846,8.315609 
	C100.763924,8.150122 100.428001,7.984633 100.074028,7.913466 
z"/>
<path fill="#23CA5B" opacity="1.000000" stroke="none" 
	d="
M16.057869,150.979828 
	C11.492735,147.635895 7.951741,143.589630 7.033844,137.054886 
	C6.984198,135.894608 6.898794,135.448425 6.813391,135.002258 
	C6.868381,132.969284 6.923371,130.936295 7.182819,128.303864 
	C7.388330,127.390518 7.389381,127.076614 7.390432,126.762718 
	C7.489215,126.605614 7.587999,126.448509 7.975966,125.970337 
	C8.539312,125.407471 8.556392,125.148666 8.316389,124.872864 
	C8.441899,124.743019 8.567410,124.613167 9.190077,124.170227 
	C11.544432,121.904633 13.401632,119.952141 15.553791,118.054230 
	C16.233923,118.737106 16.619099,119.365395 17.003277,120.390396 
	C17.719048,121.859421 18.341206,123.013840 19.179943,123.980293 
	C19.974335,124.895676 21.654797,125.510193 21.800743,126.437256 
	C22.361843,130.001450 24.572386,129.516754 26.987507,129.313400 
	C27.027298,129.839447 27.037411,130.050278 26.970139,130.553986 
	C26.262108,131.583481 25.631464,132.320099 24.762833,133.241791 
	C26.045521,134.931870 27.566195,136.436890 29.059258,137.969666 
	C29.031647,137.997421 29.032824,137.919128 29.089748,138.190826 
	C29.459183,138.631210 29.771692,138.799866 30.048603,138.978363 
	C30.013004,138.988174 30.029736,138.916245 30.093353,139.183807 
	C30.465427,139.621384 30.773886,139.791397 31.045761,139.974121 
	C31.009180,139.986832 31.040340,139.915924 31.095474,140.186890 
	C31.460840,140.626144 31.771072,140.794449 32.046440,140.977325 
	C32.011574,140.991928 32.036934,140.920715 32.094917,141.190125 
	C32.461426,141.630447 32.769955,141.801361 33.043976,141.981537 
	C33.009472,141.990784 33.027630,141.921677 33.088982,142.190857 
	C33.460869,142.628494 33.771408,142.796951 34.046516,142.976959 
	C34.011086,142.988510 34.033024,142.917267 34.096550,143.183746 
	C34.467670,143.618958 34.775265,143.787704 35.045246,143.971100 
	C35.007633,143.985764 35.045132,143.914261 35.099457,144.184952 
	C35.464149,144.622314 35.774521,144.789001 36.048958,144.973724 
	C36.013023,144.991776 36.043530,144.917358 36.101120,145.186310 
	C36.466766,145.627426 36.774822,145.799576 37.047531,145.980576 
	C37.012192,145.989426 37.029156,145.918564 37.091618,146.188232 
	C37.463749,146.630173 37.773422,146.802414 38.048157,146.983063 
	C38.013214,146.991470 38.021683,146.920090 38.097279,147.181458 
	C38.476273,147.619080 38.779675,147.795349 39.046707,147.977936 
	C39.010342,147.984268 39.031174,147.913437 39.094902,148.182007 
	C39.467171,148.624008 39.775707,148.797424 40.049156,148.980728 
	C40.014069,148.990616 40.027222,148.918900 40.099304,149.182434 
	C40.475933,149.622711 40.780479,149.799438 41.048561,149.980774 
	C41.012104,149.985397 41.024036,149.912872 41.094238,150.177399 
	C41.471043,150.614349 41.777645,150.786789 42.067581,150.910461 
	C42.050911,150.861664 42.146805,150.823700 42.060387,151.169647 
	C41.995480,151.989563 42.016991,152.463516 42.070038,153.270599 
	C42.766373,154.061020 43.431168,154.518341 44.344330,154.962982 
	C44.592697,154.950333 45.089687,154.930847 45.067036,154.903915 
	C45.044384,154.876984 45.110134,154.851883 45.073326,155.168793 
	C47.274712,157.974091 48.169998,155.130859 49.010509,154.881470 
	C49.010509,149.546417 49.074200,144.755188 48.985138,139.966812 
	C48.936535,137.353897 48.553425,134.808746 44.963093,135.030151 
	C44.999287,135.004715 44.944485,135.074295 44.961792,134.702057 
	C44.089485,130.677643 42.029869,128.298538 37.927238,127.708115 
	C36.862156,126.592758 35.943340,125.752563 34.979652,124.571579 
	C32.495522,121.874397 30.120090,119.446938 27.598579,117.182114 
	C25.200468,115.028122 22.649702,113.044090 19.989521,110.733490 
	C19.148455,110.057129 18.483919,109.632629 17.819384,109.208122 
	C13.981062,103.694603 7.167186,100.296432 6.624580,92.404678 
	C6.249963,86.956184 6.710965,81.807549 10.596025,77.853920 
	C22.752378,65.483002 35.134605,53.334183 47.414078,41.084038 
	C56.566711,31.953257 65.695709,22.798784 75.304367,13.290790 
	C81.684601,9.060078 87.277679,4.308642 95.170296,5.954967 
	C96.248810,6.233373 97.327332,6.511778 98.844406,7.161080 
	C99.525322,7.781901 99.820549,7.903640 100.168671,7.897193 
	C100.168671,7.897193 100.074028,7.913466 100.160522,8.136067 
	C100.561073,8.535430 100.875130,8.712191 101.189186,8.888952 
	C101.189186,8.888953 101.092163,8.876637 101.094910,9.198967 
	C104.099937,12.327028 107.102226,15.132760 110.104515,17.938492 
	C110.104515,17.938494 110.033646,17.976950 110.140152,18.189503 
	C110.560219,18.564009 110.873779,18.725960 111.187347,18.887909 
	C111.187347,18.887909 111.074951,18.894793 111.172852,19.205845 
	C112.350487,20.054436 113.430214,20.591974 114.509949,21.129513 
	C114.509949,21.129513 114.691162,21.293076 114.530640,21.734287 
	C115.277473,22.780741 116.184845,23.385981 117.092209,23.991219 
	C117.439064,23.984394 117.702560,24.129234 117.944031,25.049030 
	C118.825706,26.167351 119.646057,26.662378 120.466400,27.157410 
	C120.466400,27.157410 120.687019,27.309633 120.539665,27.771061 
	C121.081261,28.538406 121.770210,28.844320 122.459160,29.150234 
	C122.459160,29.150236 122.703827,29.305189 122.542191,29.749926 
	C123.631538,31.435278 124.882530,32.675892 126.133514,33.916512 
	C126.133514,33.916512 126.057640,33.951782 126.160889,34.170082 
	C126.594643,34.530483 126.925148,34.672588 127.255653,34.814697 
	C127.255653,34.814697 127.135002,34.798473 127.128571,35.126678 
	C127.473503,36.176842 127.666229,37.055283 128.200455,37.596878 
	C134.464874,43.947735 140.753387,50.275696 147.119308,56.524384 
	C147.862274,57.253662 149.107529,57.471233 150.119919,57.926029 
	C150.119919,57.926029 150.038620,57.974953 150.056992,58.284332 
	C152.763489,61.032623 155.451614,63.471535 158.139740,65.910446 
	C158.139740,65.910446 158.051956,65.960289 158.065277,66.268753 
	C160.755585,69.029053 163.432571,71.480904 166.109573,73.932747 
	C166.109573,73.932747 166.032990,73.988838 166.058380,74.304596 
	C167.859818,76.041969 169.635849,77.463577 171.411880,78.885193 
	C177.023895,83.267273 177.560135,93.238159 173.054382,98.477730 
	C171.895035,99.825912 170.913071,101.326637 169.165192,102.885002 
	C167.994598,103.030731 167.508423,103.048744 166.710632,102.900543 
	C161.320343,100.250885 157.728348,96.449928 155.999329,90.999290 
	C156.000000,91.000000 155.998398,90.998749 156.320862,90.954681 
	C157.085144,90.262192 157.526962,89.613770 157.936966,88.622650 
	C154.920654,85.862778 151.936142,83.445587 148.974243,81.013107 
	C148.996872,80.997826 148.973358,81.047028 148.984573,80.663467 
	C147.631851,79.212570 146.267914,78.145226 144.950470,77.043320 
	C144.996979,77.008743 144.921997,77.097176 144.950562,76.726158 
	C142.388000,71.072899 138.974182,66.664131 132.974060,65.011917 
	C132.997238,64.997978 132.975723,65.047607 132.987762,64.679016 
	C128.858521,59.580914 124.786514,54.787064 120.510086,50.183098 
	C119.768372,49.384579 118.162056,49.389153 116.976662,49.010281 
	C116.998230,48.997780 116.978683,49.043617 116.989975,48.675209 
	C116.778023,47.526436 116.794609,46.511173 116.295212,46.001274 
	C109.793091,39.362587 103.273598,32.737877 96.594841,26.278854 
	C95.695900,25.409492 93.901924,25.465612 92.259766,24.938107 
	C89.961433,25.816072 87.925735,26.849112 85.559280,27.961849 
	C77.353477,35.963696 69.478439,43.885845 61.342892,51.987385 
	C54.061199,59.126934 47.040012,66.087090 39.711739,73.172745 
	C34.844955,77.818634 30.248159,82.302551 25.748190,86.881622 
	C24.399834,88.253677 22.350756,89.998520 26.113932,90.971863 
	C26.049599,90.984612 26.036631,90.854088 26.093369,91.183075 
	C26.808477,92.000214 27.466846,92.488373 28.072411,92.977859 
	C28.019608,92.979195 28.025602,92.873726 28.086582,93.171417 
	C28.717274,93.940125 29.286982,94.411140 30.000126,95.122520 
	C30.431103,95.830040 30.718641,96.297203 31.122770,97.082504 
	C31.849115,97.583618 32.458870,97.766609 33.038666,97.930717 
	C33.008709,97.911835 33.045864,97.851532 33.111519,98.189499 
	C37.149845,102.724068 41.081013,106.961433 45.129135,111.083969 
	C45.969780,111.940063 47.244167,112.370247 48.318657,112.996719 
	C48.617260,112.921539 48.839764,113.019394 49.037521,113.876007 
	C49.892509,114.970619 50.696144,115.479500 51.499779,115.988380 
	C54.968906,119.655846 58.438038,123.323311 61.979637,127.724312 
	C62.951626,130.643250 63.851154,132.828659 64.827957,135.336151 
	C64.876122,136.096603 64.847023,136.534927 64.565399,137.303497 
	C64.208527,149.248428 64.005569,160.863525 64.051453,172.477631 
	C64.068298,176.739960 62.426674,180.033417 58.875107,181.932022 
	C56.513157,183.194672 53.590347,183.408173 50.918571,184.091278 
	C50.332058,183.981995 49.745544,183.872726 49.062531,183.095230 
	C47.269745,180.903320 45.573471,179.379623 43.715660,177.617188 
	C42.482330,176.554077 41.410542,175.729675 40.338753,174.905289 
	C40.338753,174.905289 40.011951,174.862915 39.829575,174.604462 
	C39.312775,173.975647 38.978359,173.605301 38.643944,173.234940 
	C38.316212,172.980499 37.988480,172.726044 37.338402,171.901367 
	C31.943483,166.003464 26.870907,160.675827 21.798330,155.348175 
	C21.433685,155.049652 21.069044,154.751129 20.058163,153.849686 
	C18.293905,152.491119 17.175886,151.735474 16.057869,150.979828 
z"/>
<path fill="#25C75C" opacity="1.000000" stroke="none" 
	d="
M132.913696,109.778976 
	C119.598701,96.358429 106.314034,82.907249 92.880569,69.606354 
	C92.197647,68.930168 89.767609,68.982666 88.945663,69.660080 
	C85.169098,72.772545 81.675117,76.227875 77.762169,80.003204 
	C77.304764,80.681541 77.153496,80.909264 76.990807,81.129410 
	C77.062080,81.425949 76.979019,81.669960 76.153763,81.871384 
	C72.664513,84.778008 69.763115,87.674675 66.546562,90.720276 
	C63.227486,93.296494 60.223564,95.723778 56.839203,98.105209 
	C52.084435,99.712746 50.741581,95.887932 48.393879,93.723320 
	C47.153088,92.579292 45.491615,91.891518 43.899780,90.767609 
	C43.508030,90.327080 43.236572,90.116707 43.116234,89.605850 
	C53.159351,79.374687 63.051353,69.444016 73.214325,59.582451 
	C73.964729,59.090645 74.444160,58.529732 75.233551,57.817348 
	C81.075813,49.030655 92.549019,46.120575 100.186111,51.911625 
	C105.106255,55.642467 109.503403,60.095341 113.941628,64.422882 
	C124.251152,74.475281 134.454926,84.636345 144.664017,94.791138 
	C145.583328,95.705582 146.230133,96.893990 147.061096,98.290443 
	C151.072296,102.425575 155.025864,106.225433 159.120239,110.340294 
	C160.937653,112.106110 162.614273,113.556915 164.555588,115.111000 
	C165.609390,115.700699 166.398499,116.187119 167.187607,116.673538 
	C167.187607,116.673538 167.246292,116.783066 167.331909,117.090729 
	C167.984009,117.864563 168.550507,118.330750 169.116989,118.796936 
	C169.116989,118.796936 169.126038,118.868263 169.211823,119.228073 
	C170.450058,121.745995 171.121094,124.472359 172.856384,125.942513 
	C176.338943,128.892975 176.382843,132.482697 175.676407,136.199280 
	C175.235672,138.518036 173.840790,140.655426 172.541138,142.951935 
	C168.152908,147.380112 164.097641,151.730560 160.042374,156.081009 
	C160.042374,156.081009 160.011612,156.014969 159.814911,156.144379 
	C159.419998,156.559647 159.221802,156.845520 159.023590,157.131378 
	C159.023590,157.131378 159.034897,157.033005 158.750580,157.078400 
	C157.994354,157.778549 157.522446,158.433319 157.050522,159.088074 
	C157.050522,159.088074 157.008774,159.013229 156.811127,159.039597 
	C156.447464,159.401077 156.281433,159.736191 156.115387,160.071304 
	C156.115387,160.071304 156.026047,160.445511 155.595551,160.677505 
	C152.376984,164.027664 149.588913,167.145828 146.800842,170.263992 
	C146.690552,170.471924 146.580261,170.679840 146.150787,171.134216 
	C145.627289,171.555145 145.406647,171.609818 145.169724,171.544693 
	C145.169724,171.544693 145.086975,171.879135 144.601227,171.990173 
	C142.781158,173.414062 141.446823,174.726898 140.112488,176.039749 
	C137.100861,182.141693 131.819290,185.962921 125.446350,185.533234 
	C122.444077,185.330826 119.752029,180.527069 116.955048,176.971741 
	C116.950890,162.278793 116.911095,148.422440 116.871300,134.566071 
	C117.377785,129.518753 120.855766,126.432945 124.970474,123.179337 
	C127.540787,124.652840 129.344162,126.392456 131.350159,127.853989 
	C134.343277,130.034729 136.160492,132.695587 135.614960,136.533997 
	C135.461853,136.526443 135.279404,136.280045 134.878677,136.342438 
	C131.214066,143.080505 133.646255,149.905869 133.200836,156.655609 
	C133.674927,156.839920 134.149017,157.024231 134.623108,157.208542 
	C135.457291,156.111328 136.291473,155.014114 137.366699,153.701141 
	C141.947250,148.795013 146.175049,143.994766 150.652786,139.440262 
	C157.181808,132.799301 157.244324,132.512283 149.893005,126.712021 
	C149.401001,126.323837 148.717529,126.178322 148.092255,125.558975 
	C143.255569,120.221992 138.449753,115.245972 133.643936,110.269951 
	C133.643936,110.269951 133.726791,110.164009 133.787170,110.016212 
	C133.536270,109.838600 133.224991,109.808784 132.913696,109.778976 
z"/>
<path fill="#1C9546" opacity="1.000000" stroke="none" 
	d="
M133.609161,110.601242 
	C138.449753,115.245972 143.255569,120.221992 147.808762,125.768219 
	C145.388229,127.975792 143.220322,129.613159 141.006866,130.878174 
	C138.099319,125.283836 135.257782,120.044968 129.793594,116.969894 
	C131.053848,114.957436 132.314117,112.944984 133.609161,110.601242 
z"/>
<path fill="#21AD52" opacity="1.000000" stroke="none" 
	d="
M129.490723,117.120163 
	C135.257782,120.044968 138.099319,125.283836 140.912140,131.182587 
	C139.164658,133.420074 137.466370,134.980820 135.768082,136.541565 
	C136.160492,132.695587 134.343277,130.034729 131.350159,127.853989 
	C129.344162,126.392456 127.540787,124.652840 125.269333,123.039467 
	C126.323906,121.117661 127.755890,119.194046 129.490723,117.120163 
z"/>
<path fill="#1E9C4B" opacity="1.000000" stroke="none" 
	d="
M51.029602,106.163139 
	C50.326115,107.069717 49.622627,107.976303 48.265720,108.926498 
	C44.388840,104.592949 41.165375,100.215775 37.980919,95.510956 
	C39.004326,94.077835 39.988728,92.972359 41.116364,92.188110 
	C45.316677,95.953865 45.298206,103.913567 53.036697,103.510864 
	C52.321308,104.600487 51.675457,105.381813 51.029602,106.163139 
z"/>
<path fill="#209B4C" opacity="1.000000" stroke="none" 
	d="
M164.290894,115.007721 
	C162.614273,113.556915 160.937653,112.106110 159.398926,110.090675 
	C159.567734,108.282974 160.140991,106.447556 159.538651,105.896049 
	C156.388077,103.011299 152.939301,100.452255 149.762207,97.493240 
	C150.885681,96.297890 151.841156,95.389259 152.928680,94.830208 
	C156.239120,98.674515 159.417480,102.169228 162.992722,106.100311 
	C164.304535,105.112740 165.663406,104.089752 167.022263,103.066757 
	C167.508423,103.048744 167.994598,103.030731 168.847015,103.009872 
	C168.865753,103.471359 168.518219,103.935699 167.765686,104.798508 
	C165.589432,107.054298 163.818207,108.911636 161.874634,110.949692 
	C162.682388,112.306313 163.486649,113.657021 164.290894,115.007721 
z"/>
<path fill="#36BE6B" opacity="1.000000" stroke="none" 
	d="
M51.087532,184.433197 
	C53.590347,183.408173 56.513157,183.194672 58.875107,181.932022 
	C62.426674,180.033417 64.068298,176.739960 64.051453,172.477631 
	C64.005569,160.863525 64.208527,149.248428 64.635735,137.770996 
	C65.002579,150.964371 65.046562,164.020462 65.090546,177.076553 
	C64.361137,183.866470 57.958950,187.429245 51.087532,184.433197 
z"/>
<path fill="#168E3F" opacity="1.000000" stroke="none" 
	d="
M37.941914,95.838608 
	C41.165375,100.215775 44.388840,104.592949 47.995895,109.039856 
	C48.261009,110.216133 48.142529,111.322670 48.171352,112.712967 
	C47.244167,112.370247 45.969780,111.940063 45.129135,111.083969 
	C41.081013,106.961433 37.149845,102.724068 33.462811,98.238617 
	C35.146271,97.246048 36.544090,96.542328 37.941914,95.838608 
z"/>
<path fill="#37B36B" opacity="1.000000" stroke="none" 
	d="
M150.087128,57.572052 
	C149.107529,57.471233 147.862274,57.253662 147.119308,56.524384 
	C140.753387,50.275696 134.464874,43.947735 128.200455,37.596878 
	C127.666229,37.055283 127.473503,36.176842 127.178604,35.092014 
	C130.298050,37.355701 133.544891,39.799255 136.382538,42.650112 
	C141.078568,47.367989 145.510910,52.348324 150.087128,57.572052 
z"/>
<path fill="#2E744C" opacity="1.000000" stroke="none" 
	d="
M21.533205,155.475525 
	C26.870907,160.675827 31.943483,166.003464 37.103233,171.686249 
	C33.503311,168.837189 29.659824,165.791458 26.190065,162.367035 
	C24.231678,160.434250 22.888418,157.878189 21.533205,155.475525 
z"/>
<path fill="#B7CBC7" opacity="1.000000" stroke="none" 
	d="
M172.874084,142.874191 
	C173.840790,140.655426 175.235672,138.518036 175.676407,136.199280 
	C176.382843,132.482697 176.338943,128.892975 172.856384,125.942513 
	C171.121094,124.472359 170.450058,121.745995 169.245483,119.240723 
	C177.994461,124.113213 179.837463,133.574982 173.573029,143.714539 
	C173.010132,143.297958 172.942108,143.086075 172.874084,142.874191 
z"/>
<path fill="#13462F" opacity="1.000000" stroke="none" 
	d="
M51.395737,106.115585 
	C51.675457,105.381813 52.321308,104.600487 53.315544,103.330673 
	C54.849167,101.278488 56.034409,99.714783 57.219643,98.151077 
	C60.223564,95.723778 63.227486,93.296494 66.601746,91.105141 
	C67.002914,91.596420 67.033760,91.851761 67.064613,92.107101 
	C61.963696,96.760742 56.862782,101.414383 51.395737,106.115585 
z"/>
<path fill="#0A351A" opacity="1.000000" stroke="none" 
	d="
M65.468872,176.858734 
	C65.046562,164.020462 65.002579,150.964371 64.888260,137.440765 
	C64.847023,136.534927 64.876122,136.096603 64.919846,134.934143 
	C64.965904,133.663651 64.997360,133.117264 65.028809,132.570877 
	C65.350571,133.630035 65.950752,134.688873 65.951904,135.748383 
	C65.966774,149.379166 65.896172,163.010071 65.468872,176.858734 
z"/>
<path fill="#52A675" opacity="1.000000" stroke="none" 
	d="
M95.037888,5.668104 
	C87.277679,4.308642 81.684601,9.060078 75.427002,12.976410 
	C79.171753,6.228789 85.718903,4.295309 93.061363,4.069841 
	C93.662079,4.051394 94.290131,4.923132 95.037888,5.668104 
z"/>
<path fill="#469163" opacity="1.000000" stroke="none" 
	d="
M116.574265,134.912018 
	C116.911095,148.422440 116.950890,162.278793 116.951004,176.605499 
	C116.659660,176.666962 116.188141,176.258072 116.188194,175.849243 
	C116.190002,162.318817 116.236938,148.788406 116.574265,134.912018 
z"/>
<path fill="#2B5C49" opacity="1.000000" stroke="none" 
	d="
M172.541138,142.951935 
	C172.942108,143.086075 173.010132,143.297958 173.235352,143.804489 
	C169.161438,148.016495 164.930283,151.933853 160.370758,155.966095 
	C164.097641,151.730560 168.152908,147.380112 172.541138,142.951935 
z"/>
<path fill="#BFC5CA" opacity="1.000000" stroke="none" 
	d="
M164.555588,115.111008 
	C163.486649,113.657021 162.682388,112.306313 161.874634,110.949692 
	C163.818207,108.911636 165.589432,107.054298 167.679138,105.077652 
	C168.117233,105.923058 168.659531,107.503532 168.290741,107.756660 
	C164.837357,110.127022 166.059952,113.001656 167.161850,116.293282 
	C166.398499,116.187119 165.609390,115.700699 164.555588,115.111008 
z"/>
<path fill="#1D5B3E" opacity="1.000000" stroke="none" 
	d="
M67.371475,91.969818 
	C67.033760,91.851761 67.002914,91.596420 66.916901,90.956207 
	C69.763115,87.674675 72.664513,84.778008 75.957962,81.924026 
	C73.459450,85.255325 70.568893,88.543938 67.371475,91.969818 
z"/>
<path fill="#214F3F" opacity="1.000000" stroke="none" 
	d="
M147.122192,170.333252 
	C149.588913,167.145828 152.376984,164.027664 155.511917,160.850739 
	C153.053696,163.995483 150.248611,167.198990 147.122192,170.333252 
z"/>
<path fill="#37B46B" opacity="1.000000" stroke="none" 
	d="
M110.061150,17.588619 
	C107.102226,15.132760 104.099937,12.327028 101.126030,9.161248 
	C104.108871,11.613716 107.063332,14.426232 110.061150,17.588619 
z"/>
<path fill="#37B36B" opacity="1.000000" stroke="none" 
	d="
M158.112213,65.547455 
	C155.451614,63.471535 152.763489,61.032623 150.071716,58.239243 
	C152.740280,60.317997 155.412491,62.751228 158.112213,65.547455 
z"/>
<path fill="#37B36B" opacity="1.000000" stroke="none" 
	d="
M166.065674,73.582001 
	C163.432571,71.480904 160.755585,69.029053 158.081390,66.220917 
	C160.730057,68.320168 163.375931,70.775703 166.065674,73.582001 
z"/>
<path fill="#BCD2CA" opacity="1.000000" stroke="none" 
	d="
M17.792389,109.552292 
	C18.483919,109.632629 19.148455,110.057129 19.921043,111.047798 
	C19.646633,112.363602 19.264170,113.113251 18.589535,113.984375 
	C17.256792,115.121399 16.216223,116.136940 15.074926,117.057800 
	C14.974199,116.963127 14.777551,116.768784 14.777552,116.768784 
	C15.773499,114.478012 16.769447,112.187241 17.792389,109.552292 
z"/>
<path fill="#BCD2CA" opacity="1.000000" stroke="none" 
	d="
M15.258835,117.999649 
	C13.401632,119.952141 11.544432,121.904633 9.353479,123.954163 
	C8.558503,120.146957 10.301215,117.838783 14.442705,116.897041 
	C14.777551,116.768784 14.974199,116.963127 15.059989,117.273094 
	C15.145779,117.583061 15.258835,117.999649 15.258835,117.999649 
z"/>
<path fill="#214F3F" opacity="1.000000" stroke="none" 
	d="
M140.422516,175.932220 
	C141.446823,174.726898 142.781158,173.414062 144.428986,171.992249 
	C143.405838,173.197083 142.069183,174.510895 140.422516,175.932220 
z"/>
<path fill="#36BE6B" opacity="1.000000" stroke="none" 
	d="
M65.000328,132.238678 
	C64.997360,133.117264 64.965904,133.663651 64.842567,134.612045 
	C63.851154,132.828659 62.951626,130.643250 62.093147,128.031555 
	C63.080074,129.039001 64.025963,130.472748 65.000328,132.238678 
z"/>
<path fill="#37B36B" opacity="1.000000" stroke="none" 
	d="
M171.318665,78.537964 
	C169.635849,77.463577 167.859818,76.041969 166.074280,74.259880 
	C167.785019,75.329849 169.505234,76.760300 171.318665,78.537964 
z"/>
<path fill="#36BE6B" opacity="1.000000" stroke="none" 
	d="
M43.877197,177.855927 
	C45.573471,179.379623 47.269745,180.903320 48.950813,182.803619 
	C47.294704,182.002121 45.653805,180.824020 43.932861,179.030884 
	C43.860947,178.229233 43.869072,178.042587 43.877197,177.855927 
z"/>
<path fill="#37B36B" opacity="1.000000" stroke="none" 
	d="
M126.102074,33.578133 
	C124.882530,32.675892 123.631538,31.435278 122.614319,29.875484 
	C123.922272,30.784124 124.996452,32.011940 126.102074,33.578133 
z"/>
<path fill="#2E744C" opacity="1.000000" stroke="none" 
	d="
M43.715660,177.617188 
	C43.869072,178.042587 43.860947,178.229233 43.918514,178.687531 
	C42.851738,177.802368 41.719265,176.645538 40.462772,175.196991 
	C41.410542,175.729675 42.482330,176.554077 43.715660,177.617188 
z"/>
<path fill="#2E744C" opacity="1.000000" stroke="none" 
	d="
M16.166960,151.286194 
	C17.175886,151.735474 18.293905,152.491119 19.593910,153.316620 
	C18.609280,152.788513 17.442667,152.190536 16.166960,151.286194 
z"/>
<path fill="#37B36B" opacity="1.000000" stroke="none" 
	d="
M114.420494,20.840214 
	C113.430214,20.591974 112.350487,20.054436 111.188133,19.151657 
	C112.180687,19.374584 113.255867,19.962751 114.420494,20.840214 
z"/>
<path fill="#37B36B" opacity="1.000000" stroke="none" 
	d="
M120.340607,26.909288 
	C119.646057,26.662378 118.825706,26.167351 118.015488,25.272549 
	C118.755348,25.468908 119.485085,26.065039 120.340607,26.909288 
z"/>
<path fill="#37B36B" opacity="1.000000" stroke="none" 
	d="
M117.028503,23.690556 
	C116.184845,23.385981 115.277473,22.780741 114.597435,21.836437 
	C115.538109,22.128216 116.251457,22.759054 117.028503,23.690556 
z"/>
<path fill="#37B36B" opacity="1.000000" stroke="none" 
	d="
M122.353851,28.939190 
	C121.770210,28.844320 121.081261,28.538406 120.610863,27.884607 
	C121.302460,27.933865 121.775505,28.331005 122.353851,28.939190 
z"/>
<path fill="#B7CBC7" opacity="1.000000" stroke="none" 
	d="
M169.102661,118.499496 
	C168.550507,118.330750 167.984009,117.864563 167.391373,117.108734 
	C167.939590,117.280067 168.513962,117.741058 169.102661,118.499496 
z"/>
<path fill="#2E744C" opacity="1.000000" stroke="none" 
	d="
M38.613739,173.451172 
	C38.978359,173.605301 39.312775,173.975647 39.816204,174.440247 
	C39.517986,174.245438 39.050758,173.956406 38.613739,173.451172 
z"/>
<path fill="#2B5C49" opacity="1.000000" stroke="none" 
	d="
M157.318481,158.959259 
	C157.522446,158.433319 157.994354,157.778549 158.798462,157.091034 
	C158.615906,157.648987 158.101181,158.239716 157.318481,158.959259 
z"/>
<path fill="#168E3F" opacity="1.000000" stroke="none" 
	d="
M51.321289,115.692253 
	C50.696144,115.479500 49.892509,114.970619 49.046165,114.071411 
	C49.716572,114.252762 50.429688,114.824440 51.321289,115.692253 
z"/>
<path fill="#BCD2CA" opacity="1.000000" stroke="none" 
	d="
M7.205791,126.817360 
	C7.389381,127.076614 7.388330,127.390518 7.192111,127.868164 
	C7.005013,127.645271 7.013082,127.258636 7.205791,126.817360 
z"/>
<path fill="#214F3F" opacity="1.000000" stroke="none" 
	d="
M145.326904,171.464508 
	C145.406647,171.609818 145.627289,171.555145 145.825439,171.271271 
	C145.925598,171.191193 146.031952,171.220535 146.138321,171.249893 
	C145.920242,171.294708 145.702179,171.339523 145.326904,171.464508 
z"/>
<path fill="#2B5C49" opacity="1.000000" stroke="none" 
	d="
M156.350861,159.985977 
	C156.281433,159.736191 156.447464,159.401077 156.848846,159.059967 
	C156.918228,159.336182 156.752274,159.618408 156.350861,159.985977 
z"/>
<path fill="#BCD2CA" opacity="1.000000" stroke="none" 
	d="
M6.640526,135.170410 
	C6.898794,135.448425 6.984198,135.894608 6.987617,136.675537 
	C6.759642,136.453064 6.613652,135.895813 6.640526,135.170410 
z"/>
<path fill="#37B36B" opacity="1.000000" stroke="none" 
	d="
M127.196358,34.527138 
	C126.925148,34.672588 126.594643,34.530483 126.158035,34.128342 
	C126.413635,33.992065 126.775352,34.115822 127.196358,34.527138 
z"/>
<path fill="#BCD2CA" opacity="1.000000" stroke="none" 
	d="
M8.165600,124.973404 
	C8.556392,125.148666 8.539312,125.407471 8.053275,125.702927 
	C7.783428,125.499619 7.841232,125.272072 8.165600,124.973404 
z"/>
<path fill="#1C9546" opacity="1.000000" stroke="none" 
	d="
M133.053314,110.010178 
	C133.224991,109.808784 133.536270,109.838600 133.788818,110.083435 
	C133.551041,110.279434 133.371994,110.260406 133.053314,110.010178 
z"/>
<path fill="#2B5C49" opacity="1.000000" stroke="none" 
	d="
M159.276093,157.030609 
	C159.221802,156.845520 159.419998,156.559647 159.850998,156.149323 
	C159.898727,156.326523 159.713654,156.628189 159.276093,157.030609 
z"/>
<path fill="#37B46B" opacity="1.000000" stroke="none" 
	d="
M100.089294,7.636012 
	C99.820549,7.903640 99.525322,7.781901 99.145432,7.329471 
	C99.341904,7.209586 99.675911,7.292208 100.089294,7.636012 
z"/>
<path fill="#37B36B" opacity="1.000000" stroke="none" 
	d="
M111.119980,18.612572 
	C110.873779,18.725960 110.560219,18.564009 110.142960,18.149284 
	C110.377060,18.043417 110.714836,18.190325 111.119980,18.612572 
z"/>
<path fill="#1D5B3E" opacity="1.000000" stroke="none" 
	d="
M77.184792,81.024323 
	C77.153496,80.909264 77.304764,80.681541 77.606415,80.324562 
	C77.826340,80.543648 77.696526,80.782433 77.184792,81.024323 
z"/>
<path fill="#37B46B" opacity="1.000000" stroke="none" 
	d="
M101.144516,8.602281 
	C100.875130,8.712191 100.561073,8.535430 100.169548,8.088907 
	C100.428001,7.984633 100.763924,8.150122 101.144516,8.602281 
z"/>
<path fill="#F4F9F7" opacity="1.000000" stroke="none" 
	d="
M37.980919,95.510956 
	C36.544090,96.542328 35.146271,97.246048 33.397156,97.900650 
	C33.045864,97.851532 33.008709,97.911835 32.938896,97.614647 
	C32.248119,97.133095 31.627151,96.948730 31.006184,96.764359 
	C30.718641,96.297203 30.431103,95.830040 29.988026,94.829147 
	C29.230196,93.821518 28.627899,93.347618 28.025604,92.873726 
	C28.025602,92.873726 28.019608,92.979195 28.004459,92.670547 
	C27.338417,91.859299 26.687523,91.356697 26.036629,90.854088 
	C26.036631,90.854088 26.049599,90.984612 26.090021,90.626068 
	C30.767294,85.221596 35.404144,80.175652 40.369843,75.037033 
	C43.418629,72.324318 46.214321,69.777740 48.842041,67.068253 
	C53.649933,62.110752 58.358551,57.056976 63.419979,51.921009 
	C70.653976,45.172501 77.627533,38.597836 84.438187,31.858543 
	C85.345398,30.960829 85.426414,29.228153 85.890038,27.882149 
	C87.925735,26.849112 89.961433,25.816072 92.452187,25.241455 
	C100.931053,33.481121 108.954872,41.262371 116.978683,49.043617 
	C116.978683,49.043617 116.998230,48.997780 117.086655,49.329201 
	C122.441956,54.789616 127.708839,59.918610 132.975723,65.047607 
	C132.975723,65.047607 132.997238,64.997978 133.079529,65.333420 
	C137.081879,69.478294 141.001938,73.287735 144.921997,77.097176 
	C144.921997,77.097176 144.996979,77.008743 145.067322,77.343826 
	C146.416229,78.801613 147.694794,79.924324 148.973358,81.047028 
	C148.973358,81.047028 148.996872,80.997826 149.077408,81.333702 
	C151.451233,84.116814 153.744507,86.564041 156.028549,89.342987 
	C156.012329,90.116051 156.005356,90.557396 155.998398,90.998749 
	C155.998398,90.998749 156.000000,91.000000 155.696991,91.073654 
	C154.528183,92.258408 153.662399,93.369514 152.796616,94.480621 
	C151.841156,95.389259 150.885681,96.297890 149.436096,97.507248 
	C148.295807,97.857040 147.649658,97.906097 147.003494,97.955162 
	C146.230133,96.893990 145.583328,95.705582 144.664017,94.791138 
	C134.454926,84.636345 124.251152,74.475281 113.941628,64.422882 
	C109.503403,60.095341 105.106255,55.642467 100.186111,51.911625 
	C92.549019,46.120575 81.075813,49.030655 74.949348,57.835915 
	C73.884583,58.508415 73.413971,59.010883 72.943359,59.513351 
	C63.051353,69.444016 53.159351,79.374687 42.850769,89.681717 
	C42.269375,90.368530 42.104565,90.678978 41.714912,91.058090 
	C41.176140,91.274574 41.003830,91.521286 40.973133,91.866890 
	C39.988728,92.972359 39.004326,94.077835 37.980919,95.510956 
M70.919853,56.633137 
	C70.378944,55.779308 69.838036,54.925476 69.297127,54.071648 
	C68.950401,54.387409 68.603676,54.703171 68.256950,55.018936 
	C69.041893,55.727150 69.826843,56.435368 70.919853,56.633137 
M72.570518,49.297630 
	C72.299362,49.014549 72.030785,48.728683 71.743202,48.463406 
	C71.735489,48.456287 71.522041,48.672207 71.404541,48.784119 
	C71.675583,49.066967 71.946625,49.349815 72.570518,49.297630 
z"/>
<path fill="#F0F9F6" opacity="1.000000" stroke="none" 
	d="
M25.000820,133.056717 
	C25.631464,132.320099 26.262108,131.583481 27.312305,130.472565 
	C29.207586,128.432114 30.683311,126.765984 32.517914,125.082802 
	C33.592697,125.014626 34.308609,124.963493 35.024521,124.912369 
	C35.943340,125.752563 36.862156,126.592758 37.923828,128.021515 
	C40.359283,130.764816 42.651882,132.919556 44.944485,135.074295 
	C44.944485,135.074295 44.999287,135.004715 45.125183,135.380859 
	C45.906761,141.549530 46.619106,147.337143 47.119106,153.143066 
	C47.162872,153.651230 45.812794,154.279434 45.110130,154.851883 
	C45.110134,154.851883 45.044384,154.876984 45.055134,154.555908 
	C44.092857,153.097794 43.119831,151.960739 42.146805,150.823700 
	C42.146805,150.823700 42.050911,150.861664 42.048431,150.619766 
	C41.705311,150.222870 41.364677,150.067871 41.024040,149.912872 
	C41.024036,149.912872 41.012104,149.985397 40.990929,149.704346 
	C40.655579,149.255157 40.341400,149.087036 40.027222,148.918900 
	C40.027222,148.918900 40.014069,148.990616 40.014641,148.692978 
	C39.687199,148.234695 39.359188,148.074066 39.031174,147.913437 
	C39.031174,147.913437 39.010342,147.984268 39.001083,147.699600 
	C38.668442,147.249985 38.345066,147.085037 38.021683,146.920090 
	C38.021683,146.920090 38.013214,146.991470 37.996857,146.706024 
	C37.663387,146.253235 37.346272,146.085892 37.029156,145.918564 
	C37.029156,145.918564 37.012192,145.989426 37.006969,145.689941 
	C36.682343,145.232758 36.362934,145.075058 36.043530,144.917358 
	C36.043530,144.917358 36.013023,144.991776 36.047699,144.666687 
	C35.736626,144.199173 35.390877,144.056717 35.045128,143.914261 
	C35.045132,143.914261 35.007633,143.985764 35.043884,143.673340 
	C34.731094,143.213028 34.382061,143.065140 34.033024,142.917267 
	C34.033024,142.917267 34.011086,142.988510 34.009415,142.694946 
	C33.681038,142.241486 33.354336,142.081589 33.027630,141.921677 
	C33.027630,141.921677 33.009472,141.990784 32.996376,141.699844 
	C32.667835,141.246170 32.352386,141.083435 32.036934,140.920715 
	C32.036934,140.920715 32.011574,140.991928 32.025093,140.683701 
	C31.705851,140.222290 31.373095,140.069107 31.040340,139.915924 
	C31.040340,139.915924 31.009180,139.986832 31.022259,139.686783 
	C30.700136,139.229904 30.364937,139.073074 30.029736,138.916245 
	C30.029736,138.916245 30.013004,138.988174 29.999281,138.701035 
	C29.667980,138.248978 29.350401,138.084045 29.032824,137.919128 
	C29.032824,137.919128 29.031647,137.997421 29.007107,137.636581 
	C27.655317,135.869400 26.328070,134.463058 25.000820,133.056717 
z"/>
<path fill="#1C513A" opacity="1.000000" stroke="none" 
	d="
M85.559280,27.961847 
	C85.426414,29.228153 85.345398,30.960829 84.438187,31.858543 
	C77.627533,38.597836 70.653976,45.172501 63.042057,51.872704 
	C62.102955,51.900490 61.853180,51.854240 61.603401,51.807991 
	C69.478439,43.885845 77.353477,35.963696 85.559280,27.961847 
z"/>
<path fill="#184A35" opacity="1.000000" stroke="none" 
	d="
M61.342896,51.987389 
	C61.853180,51.854240 62.102955,51.900490 62.730648,51.995041 
	C58.358551,57.056976 53.649933,62.110752 48.842041,67.068253 
	C46.214321,69.777740 43.418629,72.324318 40.356205,74.690002 
	C40.015427,73.972847 40.017128,73.510048 40.018826,73.047241 
	C47.040012,66.087090 54.061199,59.126934 61.342896,51.987389 
z"/>
<path fill="#22AA4F" opacity="1.000000" stroke="none" 
	d="
M32.159042,125.099854 
	C30.683311,126.765984 29.207586,128.432114 27.389692,130.179672 
	C27.037411,130.050278 27.027298,129.839447 26.995834,128.941833 
	C24.516735,124.456551 22.491594,120.135956 17.004272,119.993690 
	C16.619099,119.365395 16.233923,118.737106 15.553791,118.054230 
	C15.258835,117.999649 15.145779,117.583061 15.160715,117.367767 
	C16.216223,116.136940 17.256792,115.121399 18.754673,114.292206 
	C21.831087,117.167961 24.319862,120.004860 27.125023,122.483711 
	C28.499973,123.698708 30.462461,124.248833 32.159042,125.099854 
z"/>
<path fill="#179A42" opacity="1.000000" stroke="none" 
	d="
M32.517914,125.082809 
	C30.462461,124.248833 28.499973,123.698708 27.125023,122.483711 
	C24.319862,120.004860 21.831087,117.167961 19.046844,114.170723 
	C19.264170,113.113251 19.646633,112.363602 20.097574,111.299652 
	C22.649702,113.044090 25.200468,115.028122 27.598579,117.182114 
	C30.120090,119.446938 32.495522,121.874397 34.979652,124.571579 
	C34.308609,124.963493 33.592697,125.014626 32.517914,125.082809 
z"/>
<path fill="#36B366" opacity="1.000000" stroke="none" 
	d="
M116.989975,48.675209 
	C108.954872,41.262371 100.931053,33.481121 92.714828,25.396526 
	C93.901924,25.465612 95.695900,25.409492 96.594841,26.278854 
	C103.273598,32.737877 109.793091,39.362587 116.295212,46.001274 
	C116.794609,46.511173 116.778023,47.526436 116.989975,48.675209 
z"/>
<path fill="#26B053" opacity="1.000000" stroke="none" 
	d="
M152.928680,94.830208 
	C153.662399,93.369514 154.528183,92.258408 155.696304,91.072937 
	C157.728348,96.449928 161.320343,100.250885 166.710632,102.900543 
	C165.663406,104.089752 164.304535,105.112740 162.992722,106.100311 
	C159.417480,102.169228 156.239120,98.674515 152.928680,94.830208 
z"/>
<path fill="#1C5639" opacity="1.000000" stroke="none" 
	d="
M39.711739,73.172745 
	C40.017128,73.510048 40.015427,73.972847 40.027359,74.782684 
	C35.404144,80.175652 30.767294,85.221596 26.154354,90.613327 
	C22.350756,89.998520 24.399834,88.253677 25.748190,86.881622 
	C30.248159,82.302551 34.844955,77.818634 39.711739,73.172745 
z"/>
<path fill="#36B366" opacity="1.000000" stroke="none" 
	d="
M132.987762,64.679016 
	C127.708839,59.918610 122.441956,54.789616 117.065079,49.341698 
	C118.162056,49.389153 119.768372,49.384579 120.510086,50.183098 
	C124.786514,54.787064 128.858521,59.580914 132.987762,64.679016 
z"/>
<path fill="#22C257" opacity="1.000000" stroke="none" 
	d="
M17.003277,120.390396 
	C22.491594,120.135956 24.516735,124.456551 26.966160,128.626617 
	C24.572386,129.516754 22.361843,130.001450 21.800743,126.437256 
	C21.654797,125.510193 19.974335,124.895676 19.179943,123.980293 
	C18.341206,123.013840 17.719048,121.859421 17.003277,120.390396 
z"/>
<path fill="#3FBD6D" opacity="1.000000" stroke="none" 
	d="
M45.073326,155.168793 
	C45.812794,154.279434 47.162872,153.651230 47.119106,153.143066 
	C46.619106,147.337143 45.906761,141.549530 45.088989,135.406311 
	C48.553425,134.808746 48.936535,137.353897 48.985138,139.966812 
	C49.074200,144.755188 49.010509,149.546417 49.010509,154.881470 
	C48.169998,155.130859 47.274712,157.974091 45.073326,155.168793 
z"/>
<path fill="#36B366" opacity="1.000000" stroke="none" 
	d="
M144.950562,76.726158 
	C141.001938,73.287735 137.081879,69.478294 133.056335,65.347359 
	C138.974182,66.664131 142.388000,71.072899 144.950562,76.726158 
z"/>
<path fill="#36B366" opacity="1.000000" stroke="none" 
	d="
M156.037796,89.011276 
	C153.744507,86.564041 151.451233,84.116814 149.054779,81.348984 
	C151.936142,83.445587 154.920654,85.862778 157.615570,88.632332 
	C156.896576,88.993561 156.467178,89.002419 156.037796,89.011276 
z"/>
<path fill="#3FBD6D" opacity="1.000000" stroke="none" 
	d="
M44.961792,134.702057 
	C42.651882,132.919556 40.359283,130.764816 38.070091,128.296677 
	C42.029869,128.298538 44.089485,130.677643 44.961792,134.702057 
z"/>
<path fill="#31814E" opacity="1.000000" stroke="none" 
	d="
M24.762833,133.241791 
	C26.328070,134.463058 27.655317,135.869400 29.034718,137.608826 
	C27.566195,136.436890 26.045521,134.931870 24.762833,133.241791 
z"/>
<path fill="#36B366" opacity="1.000000" stroke="none" 
	d="
M148.984573,80.663467 
	C147.694794,79.924324 146.416229,78.801613 145.020813,77.378395 
	C146.267914,78.145226 147.631851,79.212570 148.984573,80.663467 
z"/>
<path fill="#31814E" opacity="1.000000" stroke="none" 
	d="
M42.060387,151.169647 
	C43.119831,151.960739 44.092857,153.097794 45.077785,154.582840 
	C45.089687,154.930847 44.592697,154.950333 44.191792,154.709106 
	C43.206757,153.957748 42.622627,153.447617 42.038498,152.937485 
	C42.016991,152.463516 41.995480,151.989563 42.060387,151.169647 
z"/>
<path fill="#26B053" opacity="1.000000" stroke="none" 
	d="
M156.028549,89.342987 
	C156.467178,89.002419 156.896576,88.993561 157.647369,88.975021 
	C157.526962,89.613770 157.085144,90.262192 156.320862,90.954681 
	C156.005356,90.557396 156.012329,90.116051 156.028549,89.342987 
z"/>
<path fill="#1C5639" opacity="1.000000" stroke="none" 
	d="
M26.093369,91.183075 
	C26.687523,91.356697 27.338417,91.859299 28.057262,92.669212 
	C27.466846,92.488373 26.808477,92.000214 26.093369,91.183075 
z"/>
<path fill="#3FBD6D" opacity="1.000000" stroke="none" 
	d="
M42.070038,153.270599 
	C42.622627,153.447617 43.206757,153.957748 43.943428,154.721771 
	C43.431168,154.518341 42.766373,154.061020 42.070038,153.270599 
z"/>
<path fill="#1C5639" opacity="1.000000" stroke="none" 
	d="
M28.086584,93.171417 
	C28.627899,93.347618 29.230196,93.821518 29.844589,94.588791 
	C29.286982,94.411140 28.717274,93.940125 28.086584,93.171417 
z"/>
<path fill="#168E3F" opacity="1.000000" stroke="none" 
	d="
M31.122772,97.082497 
	C31.627151,96.948730 32.248119,97.133095 32.968857,97.633530 
	C32.458870,97.766609 31.849115,97.583618 31.122772,97.082497 
z"/>
<path fill="#31814E" opacity="1.000000" stroke="none" 
	d="
M40.099304,149.182434 
	C40.341400,149.087036 40.655579,149.255157 41.027390,149.699738 
	C40.780479,149.799438 40.475933,149.622711 40.099304,149.182434 
z"/>
<path fill="#31814E" opacity="1.000000" stroke="none" 
	d="
M41.094238,150.177399 
	C41.364677,150.067871 41.705311,150.222870 42.065098,150.668549 
	C41.777645,150.786789 41.471043,150.614349 41.094238,150.177399 
z"/>
<path fill="#31814E" opacity="1.000000" stroke="none" 
	d="
M39.094906,148.182007 
	C39.359188,148.074066 39.687199,148.234695 40.049728,148.683090 
	C39.775707,148.797424 39.467171,148.624008 39.094906,148.182007 
z"/>
<path fill="#31814E" opacity="1.000000" stroke="none" 
	d="
M38.097282,147.181458 
	C38.345066,147.085037 38.668442,147.249985 39.037449,147.693268 
	C38.779675,147.795349 38.476273,147.619080 38.097282,147.181458 
z"/>
<path fill="#31814E" opacity="1.000000" stroke="none" 
	d="
M37.091618,146.188232 
	C37.346272,146.085892 37.663387,146.253235 38.031799,146.697617 
	C37.773422,146.802414 37.463749,146.630173 37.091618,146.188232 
z"/>
<path fill="#31814E" opacity="1.000000" stroke="none" 
	d="
M36.101120,145.186310 
	C36.362934,145.075058 36.682343,145.232758 37.042313,145.681091 
	C36.774822,145.799576 36.466766,145.627426 36.101120,145.186310 
z"/>
<path fill="#31814E" opacity="1.000000" stroke="none" 
	d="
M35.099457,144.184952 
	C35.390877,144.056717 35.736626,144.199173 36.083633,144.648651 
	C35.774521,144.789001 35.464149,144.622314 35.099457,144.184952 
z"/>
<path fill="#31814E" opacity="1.000000" stroke="none" 
	d="
M34.096550,143.183746 
	C34.382061,143.065140 34.731094,143.213028 35.081497,143.658676 
	C34.775265,143.787704 34.467670,143.618958 34.096550,143.183746 
z"/>
<path fill="#31814E" opacity="1.000000" stroke="none" 
	d="
M33.088982,142.190857 
	C33.354336,142.081589 33.681038,142.241486 34.044846,142.683411 
	C33.771408,142.796951 33.460869,142.628494 33.088982,142.190857 
z"/>
<path fill="#31814E" opacity="1.000000" stroke="none" 
	d="
M32.094917,141.190125 
	C32.352386,141.083435 32.667835,141.246170 33.030884,141.690582 
	C32.769955,141.801361 32.461426,141.630447 32.094917,141.190125 
z"/>
<path fill="#31814E" opacity="1.000000" stroke="none" 
	d="
M31.095474,140.186890 
	C31.373095,140.069107 31.705851,140.222290 32.059956,140.669098 
	C31.771072,140.794449 31.460840,140.626144 31.095474,140.186890 
z"/>
<path fill="#31814E" opacity="1.000000" stroke="none" 
	d="
M30.093353,139.183807 
	C30.364937,139.073074 30.700136,139.229904 31.058838,139.674072 
	C30.773886,139.791397 30.465427,139.621384 30.093353,139.183807 
z"/>
<path fill="#31814E" opacity="1.000000" stroke="none" 
	d="
M29.089748,138.190826 
	C29.350401,138.084045 29.667980,138.248978 30.034882,138.691223 
	C29.771692,138.799866 29.459183,138.631210 29.089748,138.190826 
z"/>
<path fill="#ECF3F1" opacity="1.000000" stroke="none" 
	d="
M135.614960,136.533997 
	C137.466370,134.980820 139.164658,133.420074 140.957672,131.554932 
	C143.220322,129.613159 145.388229,127.975792 147.839630,126.129181 
	C148.717529,126.178322 149.401001,126.323837 149.893005,126.712021 
	C157.244324,132.512283 157.181808,132.799301 150.652786,139.440262 
	C146.175049,143.994766 141.947250,148.795013 136.949554,153.604980 
	C135.954056,147.909714 135.616730,142.094879 135.279404,136.280045 
	C135.279404,136.280045 135.461853,136.526443 135.614960,136.533997 
z"/>
<path fill="#1FAE4F" opacity="1.000000" stroke="none" 
	d="
M41.116364,92.188110 
	C41.003830,91.521286 41.176140,91.274574 42.061565,91.060768 
	C43.095402,90.995766 43.557735,90.996758 44.020073,90.997757 
	C45.491615,91.891518 47.153088,92.579292 48.393879,93.723320 
	C50.741581,95.887932 52.084435,99.712746 56.839207,98.105209 
	C56.034409,99.714783 54.849167,101.278488 53.385078,103.022377 
	C45.298206,103.913567 45.316677,95.953865 41.116364,92.188110 
z"/>
<path fill="#1A9544" opacity="1.000000" stroke="none" 
	d="
M147.061096,98.290443 
	C147.649658,97.906097 148.295807,97.857040 149.268082,97.793976 
	C152.939301,100.452255 156.388077,103.011299 159.538651,105.896049 
	C160.140991,106.447556 159.567734,108.282974 159.258148,109.775665 
	C155.025864,106.225433 151.072296,102.425575 147.061096,98.290443 
z"/>
<path fill="#21AD52" opacity="1.000000" stroke="none" 
	d="
M134.878677,136.342438 
	C135.616730,142.094879 135.954056,147.909714 136.708527,153.820709 
	C136.291473,155.014114 135.457291,156.111328 134.623108,157.208542 
	C134.149017,157.024231 133.674927,156.839920 133.200836,156.655609 
	C133.646255,149.905869 131.214066,143.080505 134.878677,136.342438 
z"/>
<path fill="#E3EAE9" opacity="1.000000" stroke="none" 
	d="
M73.214325,59.582455 
	C73.413971,59.010883 73.884583,58.508415 74.639397,57.987385 
	C74.444160,58.529732 73.964729,59.090645 73.214325,59.582455 
z"/>
<path fill="#1E9C4B" opacity="1.000000" stroke="none" 
	d="
M43.899780,90.767601 
	C43.557735,90.996758 43.095402,90.995766 42.286407,90.992096 
	C42.104565,90.678978 42.269375,90.368530 42.699654,89.982208 
	C43.236572,90.116707 43.508030,90.327080 43.899780,90.767601 
z"/>
<path fill="#E3EAE9" opacity="1.000000" stroke="none" 
	d="
M70.765823,56.888359 
	C69.826843,56.435368 69.041893,55.727150 68.256950,55.018936 
	C68.603676,54.703171 68.950401,54.387409 69.297127,54.071648 
	C69.838036,54.925476 70.378944,55.779308 70.765823,56.888359 
z"/>
<path fill="#E3EAE9" opacity="1.000000" stroke="none" 
	d="
M72.394089,49.465149 
	C71.946625,49.349815 71.675583,49.066967 71.404541,48.784119 
	C71.522041,48.672207 71.735489,48.456287 71.743202,48.463406 
	C72.030785,48.728683 72.299362,49.014549 72.394089,49.465149 
z"/>
</svg>