<svg xmlns="http://www.w3.org/2000/svg" viewBox="0 22.950000762939453 214.27999877929688 38.64999771118164" data-asc="1.220703125"><g fill="#000000"><g fill="#000000" transform="translate(0, 0)"><path d="M17.58 61.55Q12.52 61.55 8.52 59.50Q4.54 57.45 2.27 53.55Q0 49.66 0 44.09L0 42.46Q0 37.35 2.10 33.37Q4.20 29.44 8.06 27.21Q11.91 24.98 17.24 24.98Q20.95 24.98 24.30 25.96Q27.66 26.95 30.54 29.35L30.54 38.50L24.32 38.50L23.46 33.25Q23.05 32.98 22.62 32.73Q22.19 32.47 21.73 32.28Q19.87 31.42 17.53 31.42Q14.82 31.42 12.79 32.71Q10.77 34.01 9.66 36.46Q8.54 38.92 8.54 42.41L8.54 44.09Q8.54 47.34 9.69 49.83Q10.84 52.32 12.90 53.71Q14.97 55.10 17.68 55.10Q19.12 55.10 20.61 54.80Q22.09 54.49 23.49 53.98L24.34 48.95L30.59 48.95L30.59 57.91Q28.47 59.38 25.17 60.46Q21.88 61.55 17.58 61.55ZM46.24 61.55Q42.16 61.55 39.28 59.84Q36.40 58.15 34.86 55.11Q33.33 52.08 33.33 48.07L33.33 47.58Q33.33 43.63 34.86 40.60Q36.38 37.57 39.26 35.85Q42.14 34.13 46.19 34.13Q50.27 34.13 53.15 35.84Q56.01 37.55 57.53 40.58Q59.06 43.60 59.06 47.58L59.06 48.07Q59.06 52.00 57.54 55.08Q56.01 58.11 53.14 59.83Q50.27 61.55 46.24 61.55M46.24 55.03Q47.78 55.03 48.75 54.17Q49.68 53.32 50.11 51.77Q50.54 50.22 50.54 48.07L50.54 47.58Q50.54 45.56 50.12 43.95Q49.68 42.41 48.73 41.54Q47.78 40.67 46.19 40.67Q44.65 40.67 43.68 41.53Q42.72 42.41 42.31 43.96Q41.89 45.51 41.89 47.58L41.89 48.07Q41.89 50.20 42.31 51.81Q42.72 53.37 43.68 54.20Q44.63 55.03 46.24 55.03ZM71.92 61.55Q68.82 61.55 66.60 59.91Q64.38 58.28 63.18 55.31Q61.99 52.34 61.99 48.39L61.99 47.88Q61.99 43.73 63.18 40.65Q64.38 37.57 66.59 35.85Q68.80 34.13 71.83 34.13Q73.93 34.13 75.45 35.00Q76.98 35.86 78.13 37.43L78.13 28.76L74.41 27.98L74.41 22.95L86.69 22.95L86.69 55.25L89.77 56.03L89.77 61.04L79.27 61.04L78.64 57.76Q77.44 59.62 75.81 60.58Q74.17 61.55 71.92 61.55M74.58 54.98Q76.90 54.98 78.13 53.32L78.13 42.75Q76.90 40.70 74.63 40.70Q73.17 40.70 72.27 41.60Q71.36 42.50 70.96 44.12Q70.56 45.73 70.56 47.88L70.56 48.39Q70.56 51.54 71.44 53.26Q72.31 54.98 74.58 54.98ZM104.42 61.55Q100.56 61.55 97.66 59.86Q94.78 58.20 93.16 55.30Q91.55 52.39 91.55 48.73L91.55 47.83Q91.55 43.77 92.97 40.70Q94.38 37.60 97.12 35.85Q99.85 34.11 103.83 34.13Q107.40 34.13 109.91 35.50Q114.97 38.35 114.97 46.14L114.97 50.56L100.44 50.56L100.42 50.73Q100.59 51.95 101.27 52.93Q101.90 53.91 103.05 54.47Q104.20 55.03 105.88 55.03Q109.11 55.03 112.52 53.44L114.48 58.62Q112.70 59.89 110.13 60.72Q107.57 61.55 104.42 61.55M100.34 45.14L100.44 45.26L107.15 45.26L107.15 44.63Q107.15 43.26 106.88 42.26Q106.30 40.33 104.03 40.33Q102.73 40.33 101.98 40.94Q101.22 41.55 100.85 42.65Q100.49 43.75 100.34 45.14ZM140.36 40.87L151.25 55.42L154.88 56.03L154.88 61.04L137.74 61.04L137.74 56.03L141.31 55.76L141.36 55.76L134.59 46.51L129.86 51.12L129.86 55.25L133.23 56.03L133.23 61.04L117.60 61.04L117.60 56.03L121.29 55.25L121.29 31.30L117.60 30.52L117.60 25.49L133.23 25.49L133.23 30.52L129.86 31.30L129.86 41.80L140.99 30.83L141.02 30.79L136.99 30.52L136.99 25.49L153.59 25.49L153.59 30.52L150.24 31.23L140.36 40.87ZM167.82 22.95L167.82 29.61L159.01 29.61L159.01 22.95L167.82 22.95M170.90 56.03L170.90 61.04L156.15 61.04L156.15 56.03L159.25 55.25L159.25 40.43L155.57 39.65L155.57 34.62L167.82 34.62L167.82 55.25L170.90 56.03ZM183.72 61.60Q179.57 61.60 177.40 59.39Q175.24 57.18 175.24 52.39L175.24 40.53L171.95 40.53L171.95 34.62L175.24 34.62L175.24 28.10L183.76 28.10L183.76 34.62L188.09 34.62L188.09 40.53L183.76 40.53L183.76 52.37Q183.76 53.66 184.35 54.17Q184.94 54.69 185.96 54.69Q186.40 54.69 186.84 54.64Q187.28 54.59 187.72 54.52L188.31 60.91Q187.18 61.23 186.05 61.41Q184.91 61.60 183.72 61.60ZM203.74 61.55Q199.88 61.55 196.97 59.86Q194.09 58.20 192.48 55.30Q190.87 52.39 190.87 48.73L190.87 47.83Q190.87 43.77 192.29 40.70Q193.70 37.60 196.44 35.85Q199.17 34.11 203.15 34.13Q206.71 34.13 209.23 35.50Q214.28 38.35 214.28 46.14L214.28 50.56L199.76 50.56L199.73 50.73Q199.90 51.95 200.59 52.93Q201.22 53.91 202.37 54.47Q203.52 55.03 205.20 55.03Q208.42 55.03 211.84 53.44L213.79 58.62Q212.01 59.89 209.45 60.72Q206.88 61.55 203.74 61.55M199.66 45.14L199.76 45.26L206.47 45.26L206.47 44.63Q206.47 43.26 206.20 42.26Q205.62 40.33 203.34 40.33Q202.05 40.33 201.29 40.94Q200.54 41.55 200.17 42.65Q199.80 43.75 199.66 45.14Z"/></g></g></svg>